<?xml version="1.0" encoding="UTF-8"?>
<!DOCTYPE svg PUBLIC "-//W3C//DTD SVG 1.1//EN" "http://www.w3.org/Graphics/SVG/1.1/DTD/svg11.dtd">
<svg xmlns="http://www.w3.org/2000/svg" version="1.1" width="740px" height="741px" style="shape-rendering:geometricPrecision; text-rendering:geometricPrecision; image-rendering:optimizeQuality; fill-rule:evenodd; clip-rule:evenodd" xmlns:xlink="http://www.w3.org/1999/xlink">
<g><path style="opacity:1" fill="#fc0101" d="M 516.5,74.5 C 517.959,74.4326 519.292,74.7659 520.5,75.5C 518.224,77.3799 518.891,78.7132 522.5,79.5C 524.289,83.864 527.623,85.6974 532.5,85C 553.334,97.0687 572.667,111.069 590.5,127C 592.037,128.11 592.703,129.61 592.5,131.5C 593.552,131.351 594.552,131.517 595.5,132C 616.291,152.45 634.458,174.95 650,199.5C 650.497,202.146 650.664,204.813 650.5,207.5C 651.822,207.67 652.989,207.337 654,206.5C 665.238,225.48 674.072,245.48 680.5,266.5C 679.839,267.718 679.172,269.051 678.5,270.5C 677.417,268.208 677.417,265.875 678.5,263.5C 677.167,260.445 675.834,257.445 674.5,254.5C 673.702,256.078 673.202,257.744 673,259.5C 672.586,259.043 672.086,258.709 671.5,258.5C 667.423,264.412 662.257,269.078 656,272.5C 653.721,275.963 651.888,279.63 650.5,283.5C 649.651,281.106 648.651,278.773 647.5,276.5C 647.043,275.702 646.376,275.369 645.5,275.5C 644.603,274.402 643.77,274.402 643,275.5C 641.367,272.319 640.034,268.986 639,265.5C 639.27,261.131 639.104,256.798 638.5,252.5C 637.686,254.766 637.186,257.1 637,259.5C 602.217,179.4 543.384,124.567 460.5,95C 432.436,86.3503 403.603,81.517 374,80.5C 352.014,80.8943 330.18,82.8943 308.5,86.5C 308.5,87.5 308.5,88.5 308.5,89.5C 308.5,90.1667 308.167,90.5 307.5,90.5C 307.389,89.8826 307.056,89.3826 306.5,89C 303.145,88.4541 299.812,88.6208 296.5,89.5C 293.96,88.9801 291.46,88.3134 289,87.5C 287.908,89.1147 285.908,90.448 283,91.5C 282.517,92.448 282.351,93.448 282.5,94.5C 247.541,105.318 215.874,122.484 187.5,146C 188.094,146.464 188.761,146.631 189.5,146.5C 187.763,148.55 185.763,150.383 183.5,152C 184.252,152.671 184.586,153.504 184.5,154.5C 183.542,154.047 182.708,153.381 182,152.5C 181.833,152.833 181.667,153.167 181.5,153.5C 182.524,154.852 183.524,156.185 184.5,157.5C 184.511,159.017 185.177,160.184 186.5,161C 185.055,162.71 184.222,164.544 184,166.5C 184.414,166.957 184.914,167.291 185.5,167.5C 187.626,163.792 189.959,163.626 192.5,167C 186.451,172.886 180.451,179.053 174.5,185.5C 171.648,187.325 168.982,189.325 166.5,191.5C 165.928,189.922 165.594,188.422 165.5,187C 168.039,185.3 170.705,183.8 173.5,182.5C 174.641,181.575 174.641,180.741 173.5,180C 169.056,181.727 164.556,183.56 160,185.5C 158.871,183.859 157.371,182.859 155.5,182.5C 153.912,180.384 151.912,180.051 149.5,181.5C 144.434,187.952 139.601,194.619 135,201.5C 131.679,206.561 127.679,211.894 123,217.5C 121.027,222.779 118.527,227.779 115.5,232.5C 114.675,233.386 113.675,233.719 112.5,233.5C 112.799,235.604 112.466,237.604 111.5,239.5C 72.7088,319.632 70.3755,401.299 104.5,484.5C 141.553,564.963 202.553,618.963 287.5,646.5C 286.167,646.5 284.833,646.5 283.5,646.5C 283.5,647.5 283.5,648.5 283.5,649.5C 281.5,649.5 279.5,649.5 277.5,649.5C 277.67,650.822 277.337,651.989 276.5,653C 278.256,653.202 279.922,653.702 281.5,654.5C 277.474,654.244 273.474,654.744 269.5,656C 268.887,658.147 268.221,660.314 267.5,662.5C 264.429,665.648 261.596,668.981 259,672.5C 256.393,673.123 253.893,673.79 251.5,674.5C 212.904,659.944 178.404,638.611 148,610.5C 147.517,609.552 147.351,608.552 147.5,607.5C 146.448,607.649 145.448,607.483 144.5,607C 103.944,568.047 74.944,521.88 57.5,468.5C 56.6143,469.325 56.281,470.325 56.5,471.5C 55.1302,469.75 54.1302,467.75 53.5,465.5C 54.7498,465.577 55.5831,466.244 56,467.5C 56.1667,466.833 56.3333,466.167 56.5,465.5C 45.2847,425.59 40.7847,384.923 43,343.5C 43.6684,337.489 44.0018,331.489 44,325.5C 43.79,327.058 43.29,328.391 42.5,329.5C 42.1872,325.958 42.5206,322.625 43.5,319.5C 44.0899,320.766 44.5899,322.099 45,323.5C 46.4918,316.872 47.6585,310.205 48.5,303.5C 49.5,303.5 50.5,303.5 51.5,303.5C 50.6239,300.201 50.4572,296.868 51,293.5C 52.8231,286.207 54.6565,278.874 56.5,271.5C 57.552,271.649 58.552,271.483 59.5,271C 58.7511,269.266 58.2511,267.433 58,265.5C 57.6174,266.056 57.1174,266.389 56.5,266.5C 56.2322,264.901 56.5655,263.568 57.5,262.5C 58.1174,262.611 58.6174,262.944 59,263.5C 88.2984,183.174 140.465,122.007 215.5,80C 303.993,35.8153 394.993,30.482 488.5,64C 497.792,68.2637 507.125,72.4304 516.5,76.5C 517.463,76.0302 517.463,75.3635 516.5,74.5 Z"/></g>
<g><path style="opacity:0.447" fill="#dc080a" d="M 516.5,74.5 C 517.463,75.3635 517.463,76.0302 516.5,76.5C 507.125,72.4304 497.792,68.2637 488.5,64C 394.993,30.482 303.993,35.8153 215.5,80C 140.465,122.007 88.2984,183.174 59,263.5C 58.6174,262.944 58.1174,262.611 57.5,262.5C 80.5843,196.047 120.251,142.214 176.5,101C 263.606,41.229 358.606,24.8956 461.5,52C 473.103,56.201 484.77,60.201 496.5,64C 503.354,67.2594 510.021,70.7594 516.5,74.5 Z"/></g>
<g><path style="opacity:0.365" fill="#db0102" d="M 307.5,90.5 C 263.559,99.8531 224.225,118.52 189.5,146.5C 188.761,146.631 188.094,146.464 187.5,146C 215.874,122.484 247.541,105.318 282.5,94.5C 282.351,93.448 282.517,92.448 283,91.5C 285.908,90.448 287.908,89.1147 289,87.5C 291.46,88.3134 293.96,88.9801 296.5,89.5C 299.812,88.6208 303.145,88.4541 306.5,89C 307.056,89.3826 307.389,89.8826 307.5,90.5 Z"/></g>
<g><path style="opacity:0.208" fill="#3e0805" d="M 521.5,184.5 C 520.883,184.389 520.383,184.056 520,183.5C 518.871,185.141 517.371,186.141 515.5,186.5C 517.535,182.664 520.535,179.998 524.5,178.5C 524.346,180.97 523.346,182.97 521.5,184.5 Z"/></g>
<g><path style="opacity:0.706" fill="#040303" d="M 521.5,184.5 C 513.451,198.41 505.118,212.243 496.5,226C 502.887,228.515 509.22,231.182 515.5,234C 516.451,234.718 516.617,235.551 516,236.5C 502.582,249.59 488.915,262.257 475,274.5C 473.244,273.579 473.077,272.412 474.5,271C 481.442,261.094 488.109,251.094 494.5,241C 488.319,237.743 481.985,234.743 475.5,232C 474.643,231.311 473.977,230.478 473.5,229.5C 486.872,214.462 500.872,200.129 515.5,186.5C 517.371,186.141 518.871,185.141 520,183.5C 520.383,184.056 520.883,184.389 521.5,184.5 Z"/></g>
<g><path style="opacity:0.848" fill="#020101" d="M 472.5,440.5 C 467.726,436.902 463.06,433.069 458.5,429C 457.901,427.378 457.234,425.878 456.5,424.5C 457.487,368.425 442.654,317.092 412,270.5C 401.958,256.882 390.458,244.715 377.5,234C 344.492,213.9 323.326,222.733 314,260.5C 312.761,266.435 312.261,272.435 312.5,278.5C 311.504,278.414 310.671,278.748 310,279.5C 305.964,275.296 301.798,271.296 297.5,267.5C 297.167,267.5 296.833,267.5 296.5,267.5C 296.768,265.901 296.434,264.568 295.5,263.5C 297.908,243.658 306.575,227.158 321.5,214C 334.503,205.22 348.503,203.22 363.5,208C 375.536,212.518 386.536,218.852 396.5,227C 424.582,255.113 445.416,287.946 459,325.5C 468.872,353.63 474.039,382.63 474.5,412.5C 474.398,421.93 473.731,431.263 472.5,440.5 Z"/></g>
<g><path style="opacity:0.151" fill="#d50203" d="M 184.5,154.5 C 222.164,190.331 258.998,226.998 295,264.5C 295.399,264.272 295.565,263.938 295.5,263.5C 296.434,264.568 296.768,265.901 296.5,267.5C 293.187,264.198 289.52,261.198 285.5,258.5C 252.2,224.533 218.533,190.866 184.5,157.5C 183.524,156.185 182.524,154.852 181.5,153.5C 181.667,153.167 181.833,152.833 182,152.5C 182.708,153.381 183.542,154.047 184.5,154.5 Z"/></g>
<g><path style="opacity:1" fill="#fc0101" d="M 680.5,266.5 C 688.48,290.487 693.647,315.154 696,340.5C 696.333,359.5 696.667,378.5 697,397.5C 696.93,394.008 697.763,391.008 699.5,388.5C 698.04,406.689 695.374,424.689 691.5,442.5C 690.71,441.391 690.21,440.058 690,438.5C 689.312,442.209 687.812,445.543 685.5,448.5C 686.544,450.768 686.711,453.101 686,455.5C 670.755,510.725 642.922,558.558 602.5,599C 601.552,599.483 600.552,599.649 599.5,599.5C 599.649,600.552 599.483,601.552 599,602.5C 555.023,646.251 502.523,675.084 441.5,689C 376.498,702.78 313.165,697.947 251.5,674.5C 253.893,673.79 256.393,673.123 259,672.5C 261.596,668.981 264.429,665.648 267.5,662.5C 268.221,660.314 268.887,658.147 269.5,656C 273.474,654.744 277.474,654.244 281.5,654.5C 279.922,653.702 278.256,653.202 276.5,653C 277.337,651.989 277.67,650.822 277.5,649.5C 279.5,649.5 281.5,649.5 283.5,649.5C 283.5,648.5 283.5,647.5 283.5,646.5C 284.833,646.5 286.167,646.5 287.5,646.5C 384.673,671.466 473.006,653.799 552.5,593.5C 553.833,591.5 555.5,589.833 557.5,588.5C 556.767,587.913 555.767,587.913 554.5,588.5C 554.414,587.504 554.748,586.671 555.5,586C 553.627,584.296 551.96,582.463 550.5,580.5C 553.075,581.728 555.408,583.395 557.5,585.5C 558.562,584.575 558.562,583.575 557.5,582.5C 556.666,579.654 555,577.487 552.5,576C 552.957,575.586 553.291,575.086 553.5,574.5C 551.152,571.798 549.819,568.965 549.5,566C 550.167,565.833 550.833,565.667 551.5,565.5C 553.167,566.5 554.833,567.5 556.5,568.5C 558.96,567.84 559.626,566.506 558.5,564.5C 556.414,566.023 554.748,565.69 553.5,563.5C 554.673,561.483 556.173,560.816 558,561.5C 560.728,555.576 563.895,549.909 567.5,544.5C 568.417,543.873 569.417,543.539 570.5,543.5C 576.033,547.682 581.033,552.515 585.5,558C 586.549,558.492 587.549,558.326 588.5,557.5C 606.45,536.603 621.116,513.603 632.5,488.5C 632.03,487.537 631.363,487.537 630.5,488.5C 630.433,487.041 630.766,485.708 631.5,484.5C 632.907,487.039 634.073,486.706 635,483.5C 662.695,417.138 665.862,349.304 644.5,280C 644.773,278.467 645.106,276.967 645.5,275.5C 646.376,275.369 647.043,275.702 647.5,276.5C 648.651,278.773 649.651,281.106 650.5,283.5C 651.888,279.63 653.721,275.963 656,272.5C 662.257,269.078 667.423,264.412 671.5,258.5C 672.086,258.709 672.586,259.043 673,259.5C 673.202,257.744 673.702,256.078 674.5,254.5C 675.834,257.445 677.167,260.445 678.5,263.5C 677.417,265.875 677.417,268.208 678.5,270.5C 679.172,269.051 679.839,267.718 680.5,266.5 Z"/></g>
<g><path style="opacity:0.719" fill="#060404" d="M 591.5,257.5 C 594.518,257.335 597.518,257.502 600.5,258C 583.91,266.275 567.576,274.942 551.5,284C 556.405,289.069 560.738,294.569 564.5,300.5C 564.291,301.086 563.957,301.586 563.5,302C 548.102,305.016 532.769,308.349 517.5,312C 514.446,312.821 511.446,312.655 508.5,311.5C 519.784,306.274 530.951,300.94 542,295.5C 541.968,293.402 541.301,291.402 540,289.5C 537,285.5 534,281.5 531,277.5C 530.51,276.207 530.343,274.873 530.5,273.5C 542.856,270.729 555.19,267.896 567.5,265C 575.69,262.729 583.69,260.229 591.5,257.5 Z"/></g>
<g><path style="opacity:0.251" fill="#e00504" d="M 43.5,319.5 C 45.5076,301.138 49.8409,283.472 56.5,266.5C 57.1174,266.389 57.6174,266.056 58,265.5C 58.2511,267.433 58.7511,269.266 59.5,271C 58.552,271.483 57.552,271.649 56.5,271.5C 54.6565,278.874 52.8231,286.207 51,293.5C 50.4572,296.868 50.6239,300.201 51.5,303.5C 50.5,303.5 49.5,303.5 48.5,303.5C 47.6585,310.205 46.4918,316.872 45,323.5C 44.5899,322.099 44.0899,320.766 43.5,319.5 Z"/></g>
<g><path style="opacity:0.984" fill="#d50405" d="M 297.5,267.5 C 301.798,271.296 305.964,275.296 310,279.5C 310.671,278.748 311.504,278.414 312.5,278.5C 312.351,279.552 312.517,280.552 313,281.5C 324.448,292.616 335.614,304.116 346.5,316C 352.033,321.037 357.7,325.87 363.5,330.5C 362.89,331.391 362.557,332.391 362.5,333.5C 357.868,330.202 353.534,326.536 349.5,322.5C 335.707,308.538 322.04,294.372 308.5,280C 305.378,278.024 302.211,276.191 299,274.5C 298.023,272.26 297.523,269.927 297.5,267.5 Z"/></g>
<g><path style="opacity:1" fill="#db0404" d="M 520.5,75.5 C 616.956,127.908 675.456,208.575 696,317.5C 699.064,341.064 700.23,364.731 699.5,388.5C 697.763,391.008 696.93,394.008 697,397.5C 696.667,378.5 696.333,359.5 696,340.5C 693.647,315.154 688.48,290.487 680.5,266.5C 674.072,245.48 665.238,225.48 654,206.5C 652.989,207.337 651.822,207.67 650.5,207.5C 650.664,204.813 650.497,202.146 650,199.5C 634.458,174.95 616.291,152.45 595.5,132C 594.552,131.517 593.552,131.351 592.5,131.5C 592.703,129.61 592.037,128.11 590.5,127C 572.667,111.069 553.334,97.0687 532.5,85C 527.623,85.6974 524.289,83.864 522.5,79.5C 518.891,78.7132 518.224,77.3799 520.5,75.5 Z"/></g>
<g><path style="opacity:0.431" fill="#d40101" d="M 302.5,331.5 C 301.078,330.075 299.411,329.075 297.5,328.5C 294.194,324.527 290.527,320.86 286.5,317.5C 286.19,315.856 285.19,314.856 283.5,314.5C 282.833,314.5 282.167,314.5 281.5,314.5C 281.611,313.883 281.944,313.383 282.5,313C 256.605,286.938 230.605,261.105 204.5,235.5C 204.517,233.972 205.184,233.472 206.5,234C 234.914,262.414 263.248,290.748 291.5,319C 292.448,319.483 293.448,319.649 294.5,319.5C 294.351,320.552 294.517,321.552 295,322.5C 298.112,325.101 300.612,328.101 302.5,331.5 Z"/></g>
<g><path style="opacity:1" fill="#fb0302" d="M 184.5,157.5 C 218.533,190.866 252.2,224.533 285.5,258.5C 289.52,261.198 293.187,264.198 296.5,267.5C 296.833,267.5 297.167,267.5 297.5,267.5C 297.523,269.927 298.023,272.26 299,274.5C 302.211,276.191 305.378,278.024 308.5,280C 322.04,294.372 335.707,308.538 349.5,322.5C 353.534,326.536 357.868,330.202 362.5,333.5C 362.833,333.5 363.167,333.5 363.5,333.5C 373.777,346.112 385.111,357.779 397.5,368.5C 406.452,379.12 416.118,389.12 426.5,398.5C 474.241,446.577 522.241,494.91 570.5,543.5C 569.417,543.539 568.417,543.873 567.5,544.5C 563.895,549.909 560.728,555.576 558,561.5C 556.173,560.816 554.673,561.483 553.5,563.5C 554.748,565.69 556.414,566.023 558.5,564.5C 559.626,566.506 558.96,567.84 556.5,568.5C 554.833,567.5 553.167,566.5 551.5,565.5C 550.833,565.667 550.167,565.833 549.5,566C 549.819,568.965 551.152,571.798 553.5,574.5C 553.291,575.086 552.957,575.586 552.5,576C 555,577.487 556.666,579.654 557.5,582.5C 555.264,581.611 553.264,580.278 551.5,578.5C 521.932,548.433 492.266,518.599 462.5,489C 457.96,484.954 453.293,481.121 448.5,477.5C 448.297,475.956 447.63,474.622 446.5,473.5C 442.148,469.981 438.314,465.981 435,461.5C 411.961,439.627 389.461,417.294 367.5,394.5C 366.583,393.873 365.583,393.539 364.5,393.5C 361.833,391.5 359.5,389.167 357.5,386.5C 354.544,381.426 351.211,376.593 347.5,372C 344.099,372.266 342.433,370.766 342.5,367.5C 340.178,365.588 337.512,364.255 334.5,363.5C 333.216,359.491 330.716,356.491 327,354.5C 326.781,353.062 326.281,351.729 325.5,350.5C 322.112,348.114 319.445,345.114 317.5,341.5C 318.167,341.167 318.833,340.833 319.5,340.5C 318.833,340.167 318.167,339.833 317.5,339.5C 316.524,340.195 315.524,340.862 314.5,341.5C 310.848,337.857 306.848,334.524 302.5,331.5C 300.612,328.101 298.112,325.101 295,322.5C 294.517,321.552 294.351,320.552 294.5,319.5C 293.448,319.649 292.448,319.483 291.5,319C 263.248,290.748 234.914,262.414 206.5,234C 205.184,233.472 204.517,233.972 204.5,235.5C 203.662,235.158 203.328,234.492 203.5,233.5C 203.611,232.883 203.944,232.383 204.5,232C 187.965,215.632 171.632,199.132 155.5,182.5C 157.371,182.859 158.871,183.859 160,185.5C 164.556,183.56 169.056,181.727 173.5,180C 174.641,180.741 174.641,181.575 173.5,182.5C 170.705,183.8 168.039,185.3 165.5,187C 165.594,188.422 165.928,189.922 166.5,191.5C 168.982,189.325 171.648,187.325 174.5,185.5C 180.451,179.053 186.451,172.886 192.5,167C 189.959,163.626 187.626,163.792 185.5,167.5C 184.914,167.291 184.414,166.957 184,166.5C 184.222,164.544 185.055,162.71 186.5,161C 185.177,160.184 184.511,159.017 184.5,157.5 Z"/></g>
<g><path style="opacity:0.915" fill="#010101" d="M 283.5,314.5 C 285.19,314.856 286.19,315.856 286.5,317.5C 279.667,326.96 272,335.793 263.5,344C 252.272,352.022 241.772,360.855 232,370.5C 223.804,398.373 228.638,423.707 246.5,446.5C 249.654,449.992 253.321,452.825 257.5,455C 262.089,456.474 266.755,457.641 271.5,458.5C 292.921,450.516 314.921,448.35 337.5,452C 343.519,454.329 349.519,456.329 355.5,458C 324.72,420.197 305.386,377.03 297.5,328.5C 299.411,329.075 301.078,330.075 302.5,331.5C 306.728,336.64 311.395,341.306 316.5,345.5C 322.167,351.833 328.167,357.833 334.5,363.5C 341.833,371.5 349.5,379.167 357.5,386.5C 359.5,389.167 361.833,391.5 364.5,393.5C 366.58,395.573 368.246,397.907 369.5,400.5C 362.244,405.809 354.911,411.142 347.5,416.5C 359.58,437.871 375.246,456.038 394.5,471C 400.378,473.968 406.378,476.634 412.5,479C 417.5,479.667 422.5,479.667 427.5,479C 432.313,477.138 436.647,474.638 440.5,471.5C 443.431,473.091 446.098,475.091 448.5,477.5C 450.114,479.456 451.781,481.456 453.5,483.5C 438.844,495.826 422.177,499.326 403.5,494C 397.748,491.526 392.081,488.86 386.5,486C 374.498,475.329 361.164,466.663 346.5,460C 318.046,451.775 290.713,454.441 264.5,468C 261.512,469.99 258.845,472.323 256.5,475C 269.994,475.806 276.16,482.972 275,496.5C 285.637,502.465 294.303,510.465 301,520.5C 305.362,533.599 301.529,543.432 289.5,550C 281.819,553.28 274.152,553.28 266.5,550C 258.277,544.379 251.777,537.212 247,528.5C 243.564,519.839 239.564,511.505 235,503.5C 232.097,498.881 228.597,494.714 224.5,491C 222.1,489.299 219.433,488.466 216.5,488.5C 180.629,498.626 157.462,485.959 147,450.5C 142.194,430.941 147.027,414.441 161.5,401C 193.193,386.267 222.86,368.601 250.5,348C 259.209,340.294 267.543,332.127 275.5,323.5C 278.861,321.105 281.528,318.105 283.5,314.5 Z"/></g>
<g><path style="opacity:0.275" fill="#3e0404" d="M 281.5,314.5 C 282.167,314.5 282.833,314.5 283.5,314.5C 281.528,318.105 278.861,321.105 275.5,323.5C 277.474,320.518 279.474,317.518 281.5,314.5 Z"/></g>
<g><path style="opacity:0.804" fill="#090101" d="M 399.5,366.5 C 398.883,366.611 398.383,366.944 398,367.5C 394.227,364.236 391.06,360.57 388.5,356.5C 387.369,352.366 385.369,348.7 382.5,345.5C 381.702,345.957 381.369,346.624 381.5,347.5C 380.504,347.414 379.671,347.748 379,348.5C 373.965,343.297 368.798,338.297 363.5,333.5C 363.167,333.5 362.833,333.5 362.5,333.5C 362.557,332.391 362.89,331.391 363.5,330.5C 379.042,328.832 390.208,335.166 397,349.5C 398.89,355.01 399.723,360.676 399.5,366.5 Z"/></g>
<g><path style="opacity:1" fill="#b9191a" d="M 302.5,331.5 C 306.848,334.524 310.848,337.857 314.5,341.5C 315.6,342.605 316.267,343.938 316.5,345.5C 311.395,341.306 306.728,336.64 302.5,331.5 Z"/></g>
<g><path style="opacity:1" fill="#dd0c0d" d="M 334.5,363.5 C 328.167,357.833 322.167,351.833 316.5,345.5C 316.267,343.938 315.6,342.605 314.5,341.5C 315.524,340.862 316.524,340.195 317.5,339.5C 318.167,339.833 318.833,340.167 319.5,340.5C 318.833,340.833 318.167,341.167 317.5,341.5C 319.445,345.114 322.112,348.114 325.5,350.5C 326.281,351.729 326.781,353.062 327,354.5C 330.716,356.491 333.216,359.491 334.5,363.5 Z"/></g>
<g><path style="opacity:0.761" fill="#030101" d="M 552.5,344.5 C 554.308,344.491 555.975,344.991 557.5,346C 576.152,358.665 594.819,371.332 613.5,384C 612.975,384.692 612.308,385.192 611.5,385.5C 595.345,378.711 579.012,372.378 562.5,366.5C 560.272,373.317 558.939,380.317 558.5,387.5C 554.86,386.85 551.527,385.35 548.5,383C 537.478,374.321 526.144,365.987 514.5,358C 511.941,356.677 511.275,354.843 512.5,352.5C 523.899,357.903 535.399,363.237 547,368.5C 548.941,360.516 550.775,352.516 552.5,344.5 Z"/></g>
<g><path style="opacity:0.478" fill="#a50b0d" d="M 363.5,333.5 C 368.798,338.297 373.965,343.297 379,348.5C 379.671,347.748 380.504,347.414 381.5,347.5C 382.655,351.332 384.988,354.332 388.5,356.5C 391.06,360.57 394.227,364.236 398,367.5C 398.383,366.944 398.883,366.611 399.5,366.5C 399.5,367.167 399.5,367.833 399.5,368.5C 398.833,368.5 398.167,368.5 397.5,368.5C 385.111,357.779 373.777,346.112 363.5,333.5 Z"/></g>
<g><path style="opacity:1" fill="#d31313" d="M 334.5,363.5 C 337.512,364.255 340.178,365.588 342.5,367.5C 342.433,370.766 344.099,372.266 347.5,372C 351.211,376.593 354.544,381.426 357.5,386.5C 349.5,379.167 341.833,371.5 334.5,363.5 Z"/></g>
<g><path style="opacity:0.218" fill="#df0304" d="M 53.5,465.5 C 40.3431,420.95 36.6764,375.617 42.5,329.5C 43.29,328.391 43.79,327.058 44,325.5C 44.0018,331.489 43.6684,337.489 43,343.5C 40.7847,384.923 45.2847,425.59 56.5,465.5C 56.3333,466.167 56.1667,466.833 56,467.5C 55.5831,466.244 54.7498,465.577 53.5,465.5 Z"/></g>
<g><path style="opacity:0.223" fill="#d50202" d="M 364.5,393.5 C 365.583,393.539 366.583,393.873 367.5,394.5C 389.461,417.294 411.961,439.627 435,461.5C 438.314,465.981 442.148,469.981 446.5,473.5C 447.63,474.622 448.297,475.956 448.5,477.5C 446.098,475.091 443.431,473.091 440.5,471.5C 417.058,447.392 393.392,423.725 369.5,400.5C 368.246,397.907 366.58,395.573 364.5,393.5 Z"/></g>
<g><path style="opacity:0.206" fill="#dd0202" d="M 645.5,275.5 C 645.106,276.967 644.773,278.467 644.5,280C 665.862,349.304 662.695,417.138 635,483.5C 634.073,486.706 632.907,487.039 631.5,484.5C 656.711,425.446 662.211,364.446 648,301.5C 621.465,204.295 561.298,137.128 467.5,100C 415.497,81.7821 362.497,78.2821 308.5,89.5C 308.5,88.5 308.5,87.5 308.5,86.5C 330.18,82.8943 352.014,80.8943 374,80.5C 403.603,81.517 432.436,86.3503 460.5,95C 543.384,124.567 602.217,179.4 637,259.5C 637.186,257.1 637.686,254.766 638.5,252.5C 639.104,256.798 639.27,261.131 639,265.5C 640.034,268.986 641.367,272.319 643,275.5C 643.77,274.402 644.603,274.402 645.5,275.5 Z"/></g>
<g><path style="opacity:0.218" fill="#d70303" d="M 397.5,368.5 C 398.167,368.5 398.833,368.5 399.5,368.5C 418.446,387.112 437.446,405.779 456.5,424.5C 457.234,425.878 457.901,427.378 458.5,429C 463.06,433.069 467.726,436.902 472.5,440.5C 510.04,478.872 548.206,516.872 587,554.5C 590.559,551.056 593.893,547.389 597,543.5C 609.711,526.073 620.877,507.74 630.5,488.5C 631.363,487.537 632.03,487.537 632.5,488.5C 621.116,513.603 606.45,536.603 588.5,557.5C 587.549,558.326 586.549,558.492 585.5,558C 581.033,552.515 576.033,547.682 570.5,543.5C 522.241,494.91 474.241,446.577 426.5,398.5C 416.118,389.12 406.452,379.12 397.5,368.5 Z"/></g>
<g><path style="opacity:0.145" fill="#dc0202" d="M 155.5,182.5 C 171.632,199.132 187.965,215.632 204.5,232C 203.944,232.383 203.611,232.883 203.5,233.5C 187.279,217.946 171.279,201.946 155.5,185.5C 154.38,184.167 153.047,183.667 151.5,184C 98.8375,247.363 76.6708,320.53 85,403.5C 99.5452,499.835 148.712,572.335 232.5,621C 323.798,666.281 415.132,666.281 506.5,621C 523.152,611.191 539.152,600.358 554.5,588.5C 555.767,587.913 556.767,587.913 557.5,588.5C 555.5,589.833 553.833,591.5 552.5,593.5C 473.006,653.799 384.673,671.466 287.5,646.5C 202.553,618.963 141.553,564.963 104.5,484.5C 70.3755,401.299 72.7088,319.632 111.5,239.5C 112.466,237.604 112.799,235.604 112.5,233.5C 113.675,233.719 114.675,233.386 115.5,232.5C 118.527,227.779 121.027,222.779 123,217.5C 127.679,211.894 131.679,206.561 135,201.5C 139.601,194.619 144.434,187.952 149.5,181.5C 151.912,180.051 153.912,180.384 155.5,182.5 Z"/></g>
<g><path style="opacity:0.506" fill="#d90202" d="M 691.5,442.5 C 664.546,549.309 601.212,625.809 501.5,672C 429.58,701.729 355.913,706.729 280.5,687C 171.272,653.369 96.7717,583.202 57,476.5C 56.5065,474.866 56.3398,473.199 56.5,471.5C 56.281,470.325 56.6143,469.325 57.5,468.5C 74.944,521.88 103.944,568.047 144.5,607C 145.448,607.483 146.448,607.649 147.5,607.5C 147.351,608.552 147.517,609.552 148,610.5C 178.404,638.611 212.904,659.944 251.5,674.5C 313.165,697.947 376.498,702.78 441.5,689C 502.523,675.084 555.023,646.251 599,602.5C 599.483,601.552 599.649,600.552 599.5,599.5C 600.552,599.649 601.552,599.483 602.5,599C 642.922,558.558 670.755,510.725 686,455.5C 686.711,453.101 686.544,450.768 685.5,448.5C 687.812,445.543 689.312,442.209 690,438.5C 690.21,440.058 690.71,441.391 691.5,442.5 Z"/></g>
<g><path style="opacity:0.4" fill="#d90102" d="M 448.5,477.5 C 453.293,481.121 457.96,484.954 462.5,489C 492.266,518.599 521.932,548.433 551.5,578.5C 553.264,580.278 555.264,581.611 557.5,582.5C 558.562,583.575 558.562,584.575 557.5,585.5C 555.408,583.395 553.075,581.728 550.5,580.5C 517.939,548.36 485.605,516.027 453.5,483.5C 451.781,481.456 450.114,479.456 448.5,477.5 Z"/></g>
</svg>
