<svg width="1080" height="1080" xmlns="http://www.w3.org/2000/svg" xml:space="preserve" version="1.1">
 <desc>Created with Fabric.js 5.2.4</desc>

 <g>
  <title>Layer 1</title>
  <g id="3c17167c-8d23-4e45-bfec-989f80d01cc9" transform="matrix(1 0 0 1 540 540)">
   <rect id="svg_1" fill-rule=" nonzero" fill=" rgb(255,255,255)" stroke-miterlimit="4" stroke-linejoin=" miter" stroke-dashoffset="0" stroke-linecap=" butt" stroke-dasharray=" none" stroke=" none" height="1080" width="1080" y="-540" x="-540" vector-effect="non-scaling-stroke"/>
  </g>
  <g id="969b5ceb-42c4-48d6-b7d4-5b551f6db5e9" transform="matrix(1 0 0 1 540 540)"/>
  <g id="svg_2" transform="matrix(1.54962 0 0 1.578 535.336 544.723)">
   <g id="svg_3" vector-effect="non-scaling-stroke">
    <g id="svg_4" transform="matrix(1 0 0 1 -8.32 -10.65)">
     <path id="svg_5" fill-rule=" evenodd" fill=" rgb(252,1,1)" stroke-miterlimit="4" stroke-linejoin=" miter" stroke-dashoffset="0" stroke-dasharray=" none" stroke=" none" stroke-linecap=" butt" d="m155.06,-283.91c1.459,-0.0674 2.792,0.2659 4,1c-2.276,1.8799 -1.609,3.2132 2,4c1.789,4.364 5.123,6.1974 10,5.5c20.834,12.0687 40.167,26.069 58,42c1.537,1.11 2.203,2.61 2,4.5c1.052,-0.149 2.052,0.017 3,0.5c20.791,20.45 38.958,42.95 54.5,67.5c0.497,2.646 0.664,5.313 0.5,8c1.322,0.17 2.489,-0.163 3.5,-1c11.238,18.98 20.072,38.98 26.5,60c-0.661,1.218 -1.328,2.551 -2,4c-1.083,-2.292 -1.083,-4.625 0,-7c-1.333,-3.055 -2.666,-6.055 -4,-9c-0.798,1.578 -1.298,3.244 -1.5,5c-0.414,-0.457 -0.914,-0.791 -1.5,-1c-4.077,5.912 -9.243,10.578 -15.5,14c-2.279,3.463 -4.112,7.13 -5.5,11c-0.849,-2.394 -1.849,-4.727 -3,-7c-0.457,-0.798 -1.124,-1.131 -2,-1c-0.897,-1.098 -1.73,-1.098 -2.5,0c-1.633,-3.181 -2.966,-6.514 -4,-10c0.27,-4.369 0.104,-8.702 -0.5,-13c-0.814,2.266 -1.314,4.6 -1.5,7c-34.783,-80.1 -93.616,-134.933 -176.5,-164.5c-28.064,-8.6497 -56.897,-13.483 -86.5,-14.5c-21.986,0.3943 -43.82,2.3943 -65.5,6c0,1 0,2 0,3c0,0.6667 -0.333,1 -1,1c-0.111,-0.6174 -0.444,-1.1174 -1,-1.5c-3.355,-0.5459 -6.688,-0.3792 -10,0.5c-2.54,-0.5199 -5.04,-1.1866 -7.5,-2c-1.092,1.6147 -3.092,2.948 -6,4c-0.483,0.948 -0.649,1.948 -0.5,3c-34.959,10.818 -66.626,27.984 -95,51.5c0.594,0.464 1.261,0.631 2,0.5c-1.737,2.05 -3.737,3.883 -6,5.5c0.752,0.671 1.086,1.504 1,2.5c-0.958,-0.453 -1.792,-1.119 -2.5,-2c-0.167,0.333 -0.333,0.667 -0.5,1c1.024,1.352 2.024,2.685 3,4c0.011,1.517 0.677,2.684 2,3.5c-1.445,1.71 -2.278,3.544 -2.5,5.5c0.414,0.457 0.914,0.791 1.5,1c2.126,-3.708 4.459,-3.874 7,-0.5c-6.049,5.886 -12.049,12.053 -18,18.5c-2.852,1.825 -5.518,3.825 -8,6c-0.572,-1.578 -0.906,-3.078 -1,-4.5c2.539,-1.7 5.205,-3.2 8,-4.5c1.141,-0.925 1.141,-1.759 0,-2.5c-4.444,1.727 -8.944,3.56 -13.5,5.5c-1.129,-1.641 -2.629,-2.641 -4.5,-3c-1.588,-2.116 -3.588,-2.449 -6,-1c-5.066,6.452 -9.899,13.119 -14.5,20c-3.321,5.061 -7.321,10.394 -12,16c-1.973,5.279 -4.473,10.279 -7.5,15c-0.825,0.886 -1.825,1.219 -3,1c0.299,2.104 -0.034,4.104 -1,6c-38.7912,80.132 -41.1245,161.799 -7,245c37.053,80.463 98.053,134.463 183,162c-1.333,0 -2.667,0 -4,0c0,1 0,2 0,3c-2,0 -4,0 -6,0c0.17,1.322 -0.163,2.489 -1,3.5c1.756,0.202 3.422,0.702 5,1.5c-4.026,-0.256 -8.026,0.244 -12,1.5c-0.613,2.147 -1.279,4.314 -2,6.5c-3.071,3.148 -5.904,6.481 -8.5,10c-2.607,0.623 -5.107,1.29 -7.5,2c-38.596,-14.556 -73.096,-35.889 -103.5,-64c-0.483,-0.948 -0.649,-1.948 -0.5,-3c-1.052,0.149 -2.052,-0.017 -3,-0.5c-40.556,-38.953 -69.556,-85.12 -87,-138.5c-0.8857,0.825 -1.219,1.825 -1,3c-1.3698,-1.75 -2.3698,-3.75 -3,-6c1.2498,0.077 2.0831,0.744 2.5,2c0.1667,-0.667 0.3333,-1.333 0.5,-2c-11.2153,-39.91 -15.7153,-80.577 -13.5,-122c0.6684,-6.011 1.0018,-12.011 1,-18c-0.21,1.558 -0.71,2.891 -1.5,4c-0.3128,-3.542 0.0206,-6.875 1,-10c0.5899,1.266 1.0899,2.599 1.5,4c1.4918,-6.628 2.6585,-13.295 3.5,-20c1,0 2,0 3,0c-0.8761,-3.299 -1.0428,-6.632 -0.5,-10c1.8231,-7.293 3.6565,-14.626 5.5,-22c1.052,0.149 2.052,-0.017 3,-0.5c-0.7489,-1.734 -1.2489,-3.567 -1.5,-5.5c-0.3826,0.556 -0.8826,0.889 -1.5,1c-0.2678,-1.599 0.0655,-2.932 1,-4c0.6174,0.111 1.1174,0.444 1.5,1c29.2984,-80.326 81.465,-141.493 156.5,-183.5c88.493,-44.1847 179.493,-49.518 273,-16c9.292,4.2637 18.625,8.4304 28,12.5c0.963,-0.4698 0.963,-1.1365 0,-2z" vector-effect="non-scaling-stroke"/>
    </g>
    <g id="svg_6" transform="matrix(1 0 0 1 -82.4 -217.65)">
     <path id="svg_7" opacity="0.447" fill-rule=" evenodd" fill=" rgb(220,8,10)" stroke-miterlimit="4" stroke-linejoin=" miter" stroke-dashoffset="0" stroke-dasharray=" none" stroke=" none" stroke-linecap=" butt" d="m229.14001,-76.91c0.963,0.8635 0.963,1.5302 0,2c-9.375,-4.0696 -18.708,-8.2363 -28,-12.5c-93.507,-33.518 -184.507,-28.1847 -273,16c-75.035,42.007 -127.2016,103.174 -156.5,183.5c-0.3826,-0.556 -0.8826,-0.889 -1.5,-1c23.0843,-66.453 62.751,-120.286 119,-161.5c87.106,-59.771 182.106,-76.1044 285,-49c11.603,4.201 23.27,8.201 35,12c6.854,3.2594 13.521,6.7594 20,10.5z" vector-effect="non-scaling-stroke"/>
    </g>
    <g id="svg_8" transform="matrix(1 0 0 1 -122.27 -252.04)">
     <path id="svg_9" opacity="0.365" fill-rule=" evenodd" fill=" rgb(219,1,2)" stroke-miterlimit="4" stroke-linejoin=" miter" stroke-dashoffset="0" stroke-dasharray=" none" stroke=" none" stroke-linecap=" butt" d="m60,-26.52c-43.941,9.3531 -83.275,28.02 -118,56c-0.739,0.131 -1.406,-0.036 -2,-0.5c28.374,-23.516 60.041,-40.682 95,-51.5c-0.149,-1.052 0.017,-2.052 0.5,-3c2.908,-1.052 4.908,-2.3853 6,-4c2.46,0.8134 4.96,1.4801 7.5,2c3.312,-0.8792 6.645,-1.0459 10,-0.5c0.556,0.3826 0.889,0.8826 1,1.5z" vector-effect="non-scaling-stroke"/>
    </g>
    <g id="svg_10" transform="matrix(1 0 0 1 150.23 -186.56)">
     <path id="svg_11" opacity="0.208" fill-rule=" evenodd" fill=" rgb(62,8,5)" stroke-miterlimit="4" stroke-linejoin=" miter" stroke-dashoffset="0" stroke-dasharray=" none" stroke=" none" stroke-linecap=" butt" d="m1.5,2c-0.617,-0.111 -1.117,-0.444 -1.5,-1c-1.129,1.641 -2.629,2.641 -4.5,3c2.035,-3.836 5.035,-6.502 9,-8c-0.154,2.47 -1.154,4.47 -3,6z" vector-effect="non-scaling-stroke"/>
    </g>
    <g id="svg_12" transform="matrix(1 0 0 1 127.73 -140.06)">
     <path id="svg_13" opacity="0.706" fill-rule=" evenodd" fill=" rgb(4,3,3)" stroke-miterlimit="4" stroke-linejoin=" miter" stroke-dashoffset="0" stroke-dasharray=" none" stroke=" none" stroke-linecap=" butt" d="m24,-44.5c-8.049,13.91 -16.382,27.743 -25,41.5c6.387,2.515 12.72,5.182 19,8c0.951,0.718 1.117,1.551 0.5,2.5c-13.418,13.09 -27.085,25.757 -41,38c-1.756,-0.921 -1.923,-2.088 -0.5,-3.5c6.942,-9.906 13.609,-19.906 20,-30c-6.181,-3.257 -12.515,-6.257 -19,-9c-0.857,-0.689 -1.523,-1.522 -2,-2.5c13.372,-15.038 27.372,-29.371 42,-43c1.871,-0.359 3.371,-1.359 4.5,-3c0.383,0.556 0.883,0.889 1.5,1z" vector-effect="non-scaling-stroke"/>
    </g>
    <g id="svg_14" transform="matrix(1 0 0 1 15.23 -46.07)">
     <path id="svg_15" opacity="0.848" fill-rule=" evenodd" fill=" rgb(2,1,1)" stroke-miterlimit="4" stroke-linejoin=" miter" stroke-dashoffset="0" stroke-dasharray=" none" stroke=" none" stroke-linecap=" butt" d="m87.5,117.51001c-4.774,-3.598 -9.44,-7.431 -14,-11.5c-0.599,-1.622 -1.266,-3.122 -2,-4.5c0.987,-56.075 -13.846,-107.408 -44.5,-154c-10.042,-13.618 -21.542,-25.785 -34.5,-36.5c-33.008,-20.1 -54.174,-11.267 -63.5,26.5c-1.239,5.935 -1.739,11.935 -1.5,18c-0.996,-0.086 -1.829,0.248 -2.5,1c-4.036,-4.204 -8.202,-8.204 -12.5,-12c-0.333,0 -0.667,0 -1,0c0.268,-1.599 -0.066,-2.932 -1,-4c2.408,-19.842 11.075,-36.342 26,-49.5c13.003,-8.78 27.003,-10.78 42,-6c12.036,4.518 23.036,10.852 33,19c28.082,28.113 48.916,60.946 62.5,98.5c9.872,28.13 15.039,57.13 15.5,87c-0.102,9.43 -0.769,18.763 -2,28z" vector-effect="non-scaling-stroke"/>
    </g>
    <g id="svg_16" transform="matrix(1 0 0 1 -130.72 -159.06)">
     <path id="svg_17" opacity="0.151" fill-rule=" evenodd" fill=" rgb(213,2,3)" stroke-miterlimit="4" stroke-linejoin=" miter" stroke-dashoffset="0" stroke-dasharray=" none" stroke=" none" stroke-linecap=" butt" d="m-54.53999,-55.5c37.664,35.831 74.498,72.498 110.5,110c0.399,-0.228 0.565,-0.562 0.5,-1c0.934,1.068 1.268,2.401 1,4c-3.313,-3.302 -6.98,-6.302 -11,-9c-33.3,-33.967 -66.967,-67.634 -101,-101c-0.976,-1.315 -1.976,-2.648 -3,-4c0.167,-0.333 0.333,-0.667 0.5,-1c0.708,0.881 1.542,1.547 2.5,2z" vector-effect="non-scaling-stroke"/>
    </g>
    <g id="svg_18" transform="matrix(1 0 0 1 105.73 106.52)">
     <path id="svg_19" fill-rule=" evenodd" fill=" rgb(252,1,1)" stroke-miterlimit="4" stroke-linejoin=" miter" stroke-dashoffset="0" stroke-dasharray=" none" stroke=" none" stroke-linecap=" butt" d="m205,-209.07999c7.98,23.987 13.147,48.654 15.5,74c0.333,19 0.667,38 1,57c-0.07,-3.492 0.763,-6.492 2.5,-9c-1.46,18.189 -4.126,36.189 -8,54c-0.79,-1.109 -1.29,-2.442 -1.5,-4c-0.688,3.709 -2.188,7.043 -4.5,10c1.044,2.268 1.211,4.601 0.5,7c-15.245,55.225 -43.078,103.058 -83.5,143.5c-0.948,0.483 -1.948,0.649 -3,0.5c0.149,1.052 -0.017,2.052 -0.5,3c-43.977,43.751 -96.477,72.584 -157.5,86.5c-65.002,13.78 -128.335,8.947 -190,-14.5c2.393,-0.71 4.893,-1.377 7.5,-2c2.596,-3.519 5.429,-6.852 8.5,-10c0.721,-2.186 1.387,-4.353 2,-6.5c3.974,-1.256 7.974,-1.756 12,-1.5c-1.578,-0.798 -3.244,-1.298 -5,-1.5c0.837,-1.011 1.17,-2.178 1,-3.5c2,0 4,0 6,0c0,-1 0,-2 0,-3c1.333,0 2.667,0 4,0c97.173,24.966 185.506,7.299 265,-53c1.333,-2 3,-3.667 5,-5c-0.733,-0.587 -1.733,-0.587 -3,0c-0.086,-0.996 0.248,-1.829 1,-2.5c-1.873,-1.704 -3.54,-3.537 -5,-5.5c2.575,1.228 4.908,2.895 7,5c1.062,-0.925 1.062,-1.925 0,-3c-0.834,-2.846 -2.5,-5.013 -5,-6.5c0.457,-0.414 0.791,-0.914 1,-1.5c-2.348,-2.702 -3.681,-5.535 -4,-8.5c0.667,-0.167 1.333,-0.333 2,-0.5c1.667,1 3.333,2 5,3c2.46,-0.66 3.126,-1.994 2,-4c-2.086,1.523 -3.752,1.19 -5,-1c1.173,-2.017 2.673,-2.684 4.5,-2c2.728,-5.924 5.895,-11.591 9.5,-17c0.917,-0.627 1.917,-0.961 3,-1c5.533,4.182 10.533,9.015 15,14.5c1.049,0.492 2.049,0.326 3,-0.5c17.95,-20.897 32.616,-43.897 44,-69c-0.47,-0.963 -1.137,-0.963 -2,0c-0.067,-1.459 0.266,-2.792 1,-4c1.407,2.539 2.573,2.206 3.5,-1c27.695,-66.362 30.862,-134.196 9.5,-203.5c0.273,-1.533 0.606,-3.033 1,-4.5c0.876,-0.131 1.543,0.202 2,1c1.151,2.273 2.151,4.606 3,7c1.388,-3.87 3.221,-7.537 5.5,-11c6.257,-3.422 11.423,-8.088 15.5,-14c0.586,0.209 1.086,0.543 1.5,1c0.202,-1.756 0.702,-3.422 1.5,-5c1.334,2.945 2.667,5.945 4,9c-1.083,2.375 -1.083,4.708 0,7c0.672,-1.449 1.339,-2.782 2,-4z" vector-effect="non-scaling-stroke"/>
    </g>
    <g id="svg_20" transform="matrix(1 0 0 1 184.73 -84.08)">
     <path id="svg_21" opacity="0.719" fill-rule=" evenodd" fill=" rgb(6,4,4)" stroke-miterlimit="4" stroke-linejoin=" miter" stroke-dashoffset="0" stroke-dasharray=" none" stroke=" none" stroke-linecap=" butt" d="m37,-27.48001c3.018,-0.165 6.018,0.002 9,0.5c-16.59,8.275 -32.924,16.942 -49,26c4.905,5.069 9.238,10.569 13,16.5c-0.209,0.586 -0.543,1.086 -1,1.5c-15.398,3.016 -30.731,6.349 -46,10c-3.054,0.821 -6.054,0.655 -9,-0.5c11.284,-5.226 22.451,-10.56 33.5,-16c-0.032,-2.098 -0.699,-4.098 -2,-6c-3,-4 -6,-8 -9,-12c-0.49,-1.293 -0.657,-2.627 -0.5,-4c12.356,-2.771 24.69,-5.604 37,-8.5c8.19,-2.271 16.19,-4.771 24,-7.5z" vector-effect="non-scaling-stroke"/>
    </g>
    <g id="svg_22" transform="matrix(1 0 0 1 -318.27 -74.56)">
     <path id="svg_23" opacity="0.251" fill-rule=" evenodd" fill=" rgb(224,5,4)" stroke-miterlimit="4" stroke-linejoin=" miter" stroke-dashoffset="0" stroke-dasharray=" none" stroke=" none" stroke-linecap=" butt" d="m-8,25c2.0076,-18.362 6.3409,-36.028 13,-53c0.6174,-0.111 1.1174,-0.444 1.5,-1c0.2511,1.933 0.7511,3.766 1.5,5.5c-0.948,0.483 -1.948,0.649 -3,0.5c-1.8435,7.374 -3.6769,14.707 -5.5,22c-0.5428,3.368 -0.3761,6.701 0.5,10c-1,0 -2,0 -3,0c-0.8415,6.705 -2.0082,13.372 -3.5,20c-0.4101,-1.401 -0.9101,-2.734 -1.5,-4z" vector-effect="non-scaling-stroke"/>
    </g>
    <g id="svg_24" transform="matrix(1 0 0 1 -39.27 -68.56)">
     <path id="svg_25" opacity="0.984" fill-rule=" evenodd" fill=" rgb(213,4,5)" stroke-miterlimit="4" stroke-linejoin=" miter" stroke-dashoffset="0" stroke-dasharray=" none" stroke=" none" stroke-linecap=" butt" d="m-33,-33c4.298,3.796 8.464,7.796 12.5,12c0.671,-0.752 1.504,-1.086 2.5,-1c-0.149,1.052 0.017,2.052 0.5,3c11.448,11.116 22.614,22.616 33.5,34.5c5.533,5.037 11.2,9.87 17,14.5c-0.61,0.891 -0.943,1.891 -1,3c-4.632,-3.298 -8.966,-6.964 -13,-11c-13.793,-13.962 -27.46,-28.128 -41,-42.5c-3.122,-1.976 -6.289,-3.809 -9.5,-5.5c-0.977,-2.24 -1.477,-4.573 -1.5,-7z" vector-effect="non-scaling-stroke"/>
    </g>
    <g id="svg_26" transform="matrix(1 0 0 1 239.68 -132.56)">
     <path id="svg_27" fill-rule=" evenodd" fill=" rgb(219,4,4)" stroke-miterlimit="4" stroke-linejoin=" miter" stroke-dashoffset="0" stroke-dasharray=" none" stroke=" none" stroke-linecap=" butt" d="m-88.95001,-161c96.456,52.408 154.956,133.075 175.5,242c3.064,23.564 4.23,47.231 3.5,71c-1.737,2.508 -2.57,5.508 -2.5,9c-0.333,-19 -0.667,-38 -1,-57c-2.353,-25.346 -7.52,-50.013 -15.5,-74c-6.428,-21.02 -15.262,-41.02 -26.5,-60c-1.011,0.837 -2.178,1.17 -3.5,1c0.164,-2.687 -0.003,-5.354 -0.5,-8c-15.542,-24.55 -33.709,-47.05 -54.5,-67.5c-0.948,-0.483 -1.948,-0.649 -3,-0.5c0.203,-1.89 -0.463,-3.39 -2,-4.5c-17.833,-15.931 -37.166,-29.9313 -58,-42c-4.877,0.6974 -8.211,-1.136 -10,-5.5c-3.609,-0.7868 -4.276,-2.1201 -2,-4z" vector-effect="non-scaling-stroke"/>
    </g>
    <g id="svg_28" transform="matrix(1 0 0 1 -116.27 -86.41)">
     <path id="svg_29" opacity="0.431" fill-rule=" evenodd" fill=" rgb(212,1,1)" stroke-miterlimit="4" stroke-linejoin=" miter" stroke-dashoffset="0" stroke-dasharray=" none" stroke=" none" stroke-linecap=" butt" d="m49,48.85001c-1.422,-1.425 -3.089,-2.425 -5,-3c-3.306,-3.973 -6.973,-7.64 -11,-11c-0.31,-1.644 -1.31,-2.644 -3,-3c-0.667,0 -1.333,0 -2,0c0.111,-0.617 0.444,-1.117 1,-1.5c-25.895,-26.062 -51.895,-51.895 -78,-77.5c0.017,-1.528 0.684,-2.028 2,-1.5c28.414,28.414 56.748,56.748 85,85c0.948,0.483 1.948,0.649 3,0.5c-0.149,1.052 0.017,2.052 0.5,3c3.112,2.601 5.612,5.601 7.5,9z" vector-effect="non-scaling-stroke"/>
    </g>
    <g id="svg_30" transform="matrix(1 0 0 1 -6.77 0.94)">
     <path id="svg_31" fill-rule=" evenodd" fill=" rgb(251,3,2)" stroke-miterlimit="4" stroke-linejoin=" miter" stroke-dashoffset="0" stroke-dasharray=" none" stroke=" none" stroke-linecap=" butt" d="m-178.5,-212.5c34.033,33.366 67.7,67.033 101,101c4.02,2.698 7.687,5.698 11,9c0.333,0 0.667,0 1,0c0.023,2.427 0.523,4.76 1.5,7c3.211,1.691 6.378,3.524 9.5,5.5c13.54,14.372 27.207,28.538 41,42.5c4.034,4.036 8.368,7.702 13,11c0.333,0 0.667,0 1,0c10.277,12.612 21.611,24.279 34,35c8.952,10.62 18.618,20.62 29,30c47.741,48.077 95.741,96.41 144,145c-1.083,0.039 -2.083,0.373 -3,1c-3.605,5.409 -6.772,11.076 -9.5,17c-1.827,-0.684 -3.327,-0.017 -4.5,2c1.248,2.19 2.914,2.523 5,1c1.126,2.006 0.46,3.34 -2,4c-1.667,-1 -3.333,-2 -5,-3c-0.667,0.167 -1.333,0.333 -2,0.5c0.319,2.965 1.652,5.798 4,8.5c-0.209,0.586 -0.543,1.086 -1,1.5c2.5,1.487 4.166,3.654 5,6.5c-2.236,-0.889 -4.236,-2.222 -6,-4c-29.568,-30.067 -59.234,-59.901 -89,-89.5c-4.54,-4.046 -9.207,-7.879 -14,-11.5c-0.203,-1.544 -0.87,-2.878 -2,-4c-4.352,-3.519 -8.186,-7.519 -11.5,-12c-23.039,-21.873 -45.539,-44.206 -67.5,-67c-0.917,-0.627 -1.917,-0.961 -3,-1c-2.667,-2 -5,-4.333 -7,-7c-2.956,-5.074 -6.289,-9.907 -10,-14.5c-3.401,0.266 -5.067,-1.234 -5,-4.5c-2.322,-1.912 -4.988,-3.245 -8,-4c-1.284,-4.009 -3.784,-7.009 -7.5,-9c-0.219,-1.438 -0.719,-2.771 -1.5,-4c-3.388,-2.386 -6.055,-5.386 -8,-9c0.667,-0.333 1.333,-0.667 2,-1c-0.667,-0.333 -1.333,-0.667 -2,-1c-0.976,0.695 -1.976,1.362 -3,2c-3.652,-3.643 -7.652,-6.976 -12,-10c-1.888,-3.399 -4.388,-6.399 -7.5,-9c-0.483,-0.948 -0.649,-1.948 -0.5,-3c-1.052,0.149 -2.052,-0.017 -3,-0.5c-28.252,-28.252 -56.586,-56.586 -85,-85c-1.316,-0.528 -1.983,-0.028 -2,1.5c-0.838,-0.342 -1.172,-1.008 -1,-2c0.111,-0.617 0.444,-1.117 1,-1.5c-16.535,-16.368 -32.868,-32.868 -49,-49.5c1.871,0.359 3.371,1.359 4.5,3c4.556,-1.94 9.056,-3.773 13.5,-5.5c1.141,0.741 1.141,1.575 0,2.5c-2.795,1.3 -5.461,2.8 -8,4.5c0.094,1.422 0.428,2.922 1,4.5c2.482,-2.175 5.148,-4.175 8,-6c5.951,-6.447 11.951,-12.614 18,-18.5c-2.541,-3.374 -4.874,-3.208 -7,0.5c-0.586,-0.209 -1.086,-0.543 -1.5,-1c0.222,-1.956 1.055,-3.79 2.5,-5.5c-1.323,-0.816 -1.989,-1.983 -2,-3.5z" vector-effect="non-scaling-stroke"/>
    </g>
    <g id="svg_32" transform="matrix(1 0 0 1 -70.41 64.42)">
     <path id="svg_33" opacity="0.915" fill-rule=" evenodd" fill=" rgb(1,1,1)" stroke-miterlimit="4" stroke-linejoin=" miter" stroke-dashoffset="0" stroke-dasharray=" none" stroke=" none" stroke-linecap=" butt" d="m-15.85001,-118.98001c1.69,0.356 2.69,1.356 3,3c-6.833,9.46 -14.5,18.293 -23,26.5c-11.228,8.022 -21.728,16.855 -31.5,26.5c-8.196,27.873 -3.362,53.207 14.5,76c3.154,3.492 6.821,6.325 11,8.5c4.589,1.474 9.255,2.641 14,3.5c21.421,-7.984 43.421,-10.15 66,-6.5c6.019,2.329 12.019,4.329 18,6c-30.78,-37.803 -50.114,-80.97 -58,-129.5c1.911,0.575 3.578,1.575 5,3c4.228,5.14 8.895,9.806 14,14c5.667,6.333 11.667,12.333 18,18c7.333,8 15,15.667 23,23c2,2.667 4.333,5 7,7c2.08,2.073 3.746,4.407 5,7c-7.256,5.309 -14.589,10.642 -22,16c12.08,21.371 27.746,39.538 47,54.5c5.878,2.968 11.878,5.634 18,8c5,0.667 10,0.667 15,0c4.813,-1.862 9.147,-4.362 13,-7.5c2.931,1.591 5.598,3.591 8,6c1.614,1.956 3.281,3.956 5,6c-14.656,12.326 -31.323,15.826 -50,10.5c-5.752,-2.474 -11.419,-5.14 -17,-8c-12.002,-10.671 -25.336,-19.337 -40,-26c-28.454,-8.225 -55.787,-5.559 -82,8c-2.988,1.99 -5.655,4.323 -8,7c13.494,0.806 19.66,7.972 18.5,21.5c10.637,5.965 19.303,13.965 26,24c4.362,13.099 0.529,22.932 -11.5,29.5c-7.681,3.28 -15.348,3.28 -23,0c-8.223,-5.621 -14.723,-12.788 -19.5,-21.5c-3.436,-8.661 -7.436,-16.995 -12,-25c-2.903,-4.619 -6.403,-8.786 -10.5,-12.5c-2.4,-1.701 -5.067,-2.534 -8,-2.5c-35.871,10.126 -59.038,-2.541 -69.5,-38c-4.806,-19.559 0.027,-36.059 14.5,-49.5c31.693,-14.733 61.36,-32.399 89,-53c8.709,-7.706 17.043,-15.873 25,-24.5c3.361,-2.395 6.028,-5.395 8,-9z" vector-effect="non-scaling-stroke"/>
    </g>
    <g id="svg_34" transform="matrix(1 0 0 1 -90.27 -50.06)">
     <path id="svg_35" opacity="0.275" fill-rule=" evenodd" fill=" rgb(62,4,4)" stroke-miterlimit="4" stroke-linejoin=" miter" stroke-dashoffset="0" stroke-dasharray=" none" stroke=" none" stroke-linecap=" butt" d="m2,-4.5c0.667,0 1.333,0 2,0c-1.972,3.605 -4.639,6.605 -8,9c1.974,-2.982 3.974,-5.982 6,-9z" vector-effect="non-scaling-stroke"/>
    </g>
    <g id="svg_36" transform="matrix(1 0 0 1 11.25 -20.19)">
     <path id="svg_37" opacity="0.804" fill-rule=" evenodd" fill=" rgb(9,1,1)" stroke-miterlimit="4" stroke-linejoin=" miter" stroke-dashoffset="0" stroke-dasharray=" none" stroke=" none" stroke-linecap=" butt" d="m18.48001,17.63c-0.617,0.111 -1.117,0.444 -1.5,1c-3.773,-3.264 -6.94,-6.93 -9.5,-11c-1.131,-4.134 -3.131,-7.8 -6,-11c-0.798,0.457 -1.131,1.124 -1,2c-0.996,-0.086 -1.829,0.248 -2.5,1c-5.035,-5.203 -10.202,-10.203 -15.5,-15c-0.333,0 -0.667,0 -1,0c0.057,-1.109 0.39,-2.109 1,-3c15.542,-1.668 26.708,4.666 33.5,19c1.89,5.51 2.723,11.176 2.5,17z" vector-effect="non-scaling-stroke"/>
    </g>
    <g id="svg_38" transform="matrix(1 0 0 1 -60.27 -30.56)">
     <path id="svg_39" fill-rule=" evenodd" fill=" rgb(185,25,26)" stroke-miterlimit="4" stroke-linejoin=" miter" stroke-dashoffset="0" stroke-dasharray=" none" stroke=" none" stroke-linecap=" butt" d="m-7,-7c4.348,3.024 8.348,6.357 12,10c1.1,1.105 1.767,2.438 2,4c-5.105,-4.194 -9.772,-8.86 -14,-14z" vector-effect="non-scaling-stroke"/>
    </g>
    <g id="svg_40" transform="matrix(1 0 0 1 -45.27 -17.56)">
     <path id="svg_41" fill-rule=" evenodd" fill=" rgb(221,12,13)" stroke-miterlimit="4" stroke-linejoin=" miter" stroke-dashoffset="0" stroke-dasharray=" none" stroke=" none" stroke-linecap=" butt" d="m10,12c-6.333,-5.667 -12.333,-11.667 -18,-18c-0.233,-1.562 -0.9,-2.895 -2,-4c1.024,-0.638 2.024,-1.305 3,-2c0.667,0.333 1.333,0.667 2,1c-0.667,0.333 -1.333,0.667 -2,1c1.945,3.614 4.612,6.614 8,9c0.781,1.229 1.281,2.562 1.5,4c3.716,1.991 6.216,4.991 7.5,9z" vector-effect="non-scaling-stroke"/>
    </g>
    <g id="svg_42" transform="matrix(1 0 0 1 192.94 -3.06)">
     <path id="svg_43" opacity="0.761" fill-rule=" evenodd" fill=" rgb(3,1,1)" stroke-miterlimit="4" stroke-linejoin=" miter" stroke-dashoffset="0" stroke-dasharray=" none" stroke=" none" stroke-linecap=" butt" d="m-10.20001,-21.5c1.808,-0.009 3.475,0.491 5,1.5c18.652,12.665 37.319,25.332 56,38c-0.525,0.692 -1.192,1.192 -2,1.5c-16.155,-6.789 -32.488,-13.122 -49,-19c-2.228,6.817 -3.561,13.817 -4,21c-3.64,-0.65 -6.973,-2.15 -10,-4.5c-11.022,-8.679 -22.356,-17.013 -34,-25c-2.559,-1.323 -3.225,-3.157 -2,-5.5c11.399,5.403 22.899,10.737 34.5,16c1.941,-7.984 3.775,-15.984 5.5,-24z" vector-effect="non-scaling-stroke"/>
    </g>
    <g id="svg_44" transform="matrix(1 0 0 1 11.73 -18.06)">
     <path id="svg_45" opacity="0.478" fill-rule=" evenodd" fill=" rgb(165,11,13)" stroke-miterlimit="4" stroke-linejoin=" miter" stroke-dashoffset="0" stroke-dasharray=" none" stroke=" none" stroke-linecap=" butt" d="m-18,-17.5c5.298,4.797 10.465,9.797 15.5,15c0.671,-0.752 1.504,-1.086 2.5,-1c1.155,3.832 3.488,6.832 7,9c2.56,4.07 5.727,7.736 9.5,11c0.383,-0.556 0.883,-0.889 1.5,-1c0,0.667 0,1.333 0,2c-0.667,0 -1.333,0 -2,0c-12.389,-10.721 -23.723,-22.388 -34,-35z" vector-effect="non-scaling-stroke"/>
    </g>
    <g id="svg_46" transform="matrix(1 0 0 1 -23.77 5.94)">
     <path id="svg_47" fill-rule=" evenodd" fill=" rgb(211,19,19)" stroke-miterlimit="4" stroke-linejoin=" miter" stroke-dashoffset="0" stroke-dasharray=" none" stroke=" none" stroke-linecap=" butt" d="m-11.5,-11.5c3.012,0.755 5.678,2.088 8,4c-0.067,3.266 1.599,4.766 5,4.5c3.711,4.593 7.044,9.426 10,14.5c-8,-7.333 -15.667,-15 -23,-23z" vector-effect="non-scaling-stroke"/>
    </g>
    <g id="svg_48" transform="matrix(1 0 0 1 -321.61 27.44)">
     <path id="svg_49" opacity="0.218" fill-rule=" evenodd" fill=" rgb(223,3,4)" stroke-miterlimit="4" stroke-linejoin=" miter" stroke-dashoffset="0" stroke-dasharray=" none" stroke=" none" stroke-linecap=" butt" d="m5.34,69c-13.1569,-44.55 -16.8236,-89.883 -11,-136c0.79,-1.109 1.29,-2.442 1.5,-4c0.0018,5.989 -0.3316,11.989 -1,18c-2.2153,41.423 2.2847,82.09 13.5,122c-0.1667,0.667 -0.3333,1.333 -0.5,2c-0.4169,-1.256 -1.2502,-1.923 -2.5,-2z" vector-effect="non-scaling-stroke"/>
    </g>
    <g id="svg_50" transform="matrix(1 0 0 1 36.73 66.44)">
     <path id="svg_51" opacity="0.223" fill-rule=" evenodd" fill=" rgb(213,2,2)" stroke-miterlimit="4" stroke-linejoin=" miter" stroke-dashoffset="0" stroke-dasharray=" none" stroke=" none" stroke-linecap=" butt" d="m-42,-42c1.083,0.039 2.083,0.373 3,1c21.961,22.794 44.461,45.127 67.5,67c3.314,4.481 7.148,8.481 11.5,12c1.13,1.122 1.797,2.456 2,4c-2.402,-2.409 -5.069,-4.409 -8,-6c-23.442,-24.108 -47.108,-47.775 -71,-71c-1.254,-2.593 -2.92,-4.927 -5,-7z" vector-effect="non-scaling-stroke"/>
    </g>
    <g id="svg_52" transform="matrix(1 0 0 1 113.71 -85.72)">
     <path id="svg_53" opacity="0.206" fill-rule=" evenodd" fill=" rgb(221,2,2)" stroke-miterlimit="4" stroke-linejoin=" miter" stroke-dashoffset="0" stroke-dasharray=" none" stroke=" none" stroke-linecap=" butt" d="m162.01999,-7.84c-0.394,1.467 -0.727,2.967 -1,4.5c21.362,69.304 18.195,137.138 -9.5,203.5c-0.927,3.206 -2.093,3.539 -3.5,1c25.211,-59.054 30.711,-120.054 16.5,-183c-26.535,-97.205 -86.702,-164.372 -180.5,-201.5c-52.003,-18.2179 -105.003,-21.7179 -159,-10.5c0,-1 0,-2 0,-3c21.68,-3.6057 43.514,-5.6057 65.5,-6c29.603,1.017 58.436,5.8503 86.5,14.5c82.884,29.567 141.717,84.4 176.5,164.5c0.186,-2.4 0.686,-4.734 1.5,-7c0.604,4.298 0.77,8.631 0.5,13c1.034,3.486 2.367,6.819 4,10c0.77,-1.098 1.603,-1.098 2.5,0z" vector-effect="non-scaling-stroke"/>
    </g>
    <g id="svg_54" transform="matrix(1 0 0 1 145.23 94.33)">
     <path id="svg_55" opacity="0.218" fill-rule=" evenodd" fill=" rgb(215,3,3)" stroke-miterlimit="4" stroke-linejoin=" miter" stroke-dashoffset="0" stroke-dasharray=" none" stroke=" none" stroke-linecap=" butt" d="m-117.5,-94.89001c0.667,0 1.333,0 2,0c18.946,18.612 37.946,37.279 57,56c0.734,1.378 1.401,2.878 2,4.5c4.56,4.069 9.226,7.902 14,11.5c37.54,38.372 75.706,76.372 114.5,114c3.559,-3.444 6.893,-7.111 10,-11c12.711,-17.427 23.877,-35.76 33.5,-55c0.863,-0.963 1.53,-0.963 2,0c-11.384,25.103 -26.05,48.103 -44,69c-0.951,0.826 -1.951,0.992 -3,0.5c-4.467,-5.485 -9.467,-10.318 -15,-14.5c-48.259,-48.59 -96.259,-96.923 -144,-145c-10.382,-9.38 -20.048,-19.38 -29,-30z" vector-effect="non-scaling-stroke"/>
    </g>
    <g id="svg_56" transform="matrix(1 0 0 1 -50.74 49.98)">
     <path id="svg_57" opacity="0.145" fill-rule=" evenodd" fill=" rgb(220,2,2)" stroke-miterlimit="4" stroke-linejoin=" miter" stroke-dashoffset="0" stroke-dasharray=" none" stroke=" none" stroke-linecap=" butt" d="m-163.51999,-236.54001c16.132,16.632 32.465,33.132 49,49.5c-0.556,0.383 -0.889,0.883 -1,1.5c-16.221,-15.554 -32.221,-31.554 -48,-48c-1.12,-1.333 -2.453,-1.833 -4,-1.5c-52.6625,63.363 -74.8292,136.53 -66.5,219.5c14.5452,96.335 63.712,168.835 147.5,217.5c91.298,45.281 182.632,45.281 274,0c16.652,-9.809 32.652,-20.642 48,-32.5c1.267,-0.587 2.267,-0.587 3,0c-2,1.333 -3.667,3 -5,5c-79.494,60.299 -167.827,77.966 -265,53c-84.947,-27.537 -145.947,-81.537 -183,-162c-34.1245,-83.201 -31.7912,-164.868 7,-245c0.966,-1.896 1.299,-3.896 1,-6c1.175,0.219 2.175,-0.114 3,-1c3.027,-4.721 5.527,-9.721 7.5,-15c4.679,-5.606 8.679,-10.939 12,-16c4.601,-6.881 9.434,-13.548 14.5,-20c2.412,-1.449 4.412,-1.116 6,1z" vector-effect="non-scaling-stroke"/>
    </g>
    <g id="svg_58" transform="matrix(1 0 0 1 4.2 199.59)">
     <path id="svg_59" opacity="0.506" fill-rule=" evenodd" fill=" rgb(217,2,2)" stroke-miterlimit="4" stroke-linejoin=" miter" stroke-dashoffset="0" stroke-dasharray=" none" stroke=" none" stroke-linecap=" butt" d="m317.53,-126.15002c-26.954,106.809 -90.288,183.309 -190,229.5c-71.92,29.729 -145.587,34.729 -221,15c-109.228,-33.631 -183.7283,-103.798 -223.5,-210.5c-0.4935,-1.634 -0.6602,-3.301 -0.5,-5c-0.219,-1.175 0.1143,-2.175 1,-3c17.444,53.38 46.444,99.547 87,138.5c0.948,0.483 1.948,0.649 3,0.5c-0.149,1.052 0.017,2.052 0.5,3c30.404,28.111 64.904,49.444 103.5,64c61.665,23.447 124.998,28.28 190,14.5c61.023,-13.916 113.523,-42.749 157.5,-86.5c0.483,-0.948 0.649,-1.948 0.5,-3c1.052,0.149 2.052,-0.017 3,-0.5c40.422,-40.442 68.255,-88.275 83.5,-143.5c0.711,-2.399 0.544,-4.732 -0.5,-7c2.312,-2.957 3.812,-6.291 4.5,-10c0.21,1.558 0.71,2.891 1.5,4z" vector-effect="non-scaling-stroke"/>
    </g>
    <g id="svg_60" transform="matrix(1 0 0 1 133.63 162.44)">
     <path id="svg_61" opacity="0.4" fill-rule=" evenodd" fill=" rgb(217,1,2)" stroke-miterlimit="4" stroke-linejoin=" miter" stroke-dashoffset="0" stroke-dasharray=" none" stroke=" none" stroke-linecap=" butt" d="m-54.89999,-54c4.793,3.621 9.46,7.454 14,11.5c29.766,29.599 59.432,59.433 89,89.5c1.764,1.778 3.764,3.111 6,4c1.062,1.075 1.062,2.075 0,3c-2.092,-2.105 -4.425,-3.772 -7,-5c-32.561,-32.14 -64.895,-64.473 -97,-97c-1.719,-2.044 -3.386,-4.044 -5,-6z" vector-effect="non-scaling-stroke"/>
    </g>
   </g>
  </g>
 </g>
</svg>